<svg xmlns="http://www.w3.org/2000/svg" viewBox="0 0 240 280" role="img" aria-label="digger logo: skeleton holding a shovel">
  <defs>
    <radialGradient id="bg" cx="50%" cy="40%" r="70%">
      <stop offset="0%" stop-color="#161a22"/>
      <stop offset="100%" stop-color="#05070a"/>
    </radialGradient>
    <linearGradient id="bone" x1="0" y1="0" x2="0" y2="1">
      <stop offset="0%" stop-color="#f3efe3"/>
      <stop offset="100%" stop-color="#bdb6a1"/>
    </linearGradient>
    <linearGradient id="steel" x1="0" y1="0" x2="0" y2="1">
      <stop offset="0%" stop-color="#c9cdd5"/>
      <stop offset="100%" stop-color="#5a6068"/>
    </linearGradient>
  </defs>
  <!-- emblem disc -->
  <circle cx="120" cy="140" r="115" fill="url(#bg)" stroke="#e8e3d4" stroke-width="3"/>
  <circle cx="120" cy="140" r="105" fill="none" stroke="#3a3f48" stroke-width="1"/>
  <!-- shovel: diagonal from top-left to bottom-right -->
  <g transform="rotate(-32 120 140)">
    <rect x="116" y="35" width="8" height="170" fill="url(#steel)" stroke="#2a2e36" stroke-width="1.2"/>
    <!-- T-grip -->
    <rect x="100" y="28" width="40" height="14" rx="4" fill="url(#steel)" stroke="#2a2e36" stroke-width="1.2"/>
    <!-- shovel head -->
    <path d="M 100 200 L 140 200 L 152 250 L 120 268 L 88 250 Z" fill="url(#steel)" stroke="#2a2e36" stroke-width="1.4"/>
    <line x1="120" y1="208" x2="120" y2="258" stroke="#2a2e36" stroke-width="1"/>
  </g>
  <!-- skull -->
  <g>
    <ellipse cx="120" cy="92" rx="34" ry="38" fill="url(#bone)" stroke="#5a5240" stroke-width="1.5"/>
    <!-- eye sockets -->
    <ellipse cx="107" cy="90" rx="7" ry="9" fill="#05070a"/>
    <ellipse cx="133" cy="90" rx="7" ry="9" fill="#05070a"/>
    <!-- nasal cavity -->
    <path d="M 120 100 L 116 112 L 124 112 Z" fill="#05070a"/>
    <!-- teeth -->
    <rect x="104" y="116" width="32" height="6" fill="#05070a"/>
    <line x1="112" y1="116" x2="112" y2="122" stroke="url(#bone)" stroke-width="1.2"/>
    <line x1="120" y1="116" x2="120" y2="122" stroke="url(#bone)" stroke-width="1.2"/>
    <line x1="128" y1="116" x2="128" y2="122" stroke="url(#bone)" stroke-width="1.2"/>
    <!-- cracks -->
    <path d="M 100 78 L 92 70 M 100 78 L 96 86" stroke="#5a5240" stroke-width="1" fill="none"/>
  </g>
  <!-- spine + ribs -->
  <g stroke="url(#bone)" stroke-width="2.5" fill="none">
    <line x1="120" y1="132" x2="120" y2="200"/>
    <path d="M 96 142 Q 120 152 144 142"/>
    <path d="M 92 154 Q 120 166 148 154"/>
    <path d="M 90 168 Q 120 180 150 168"/>
    <path d="M 92 182 Q 120 192 148 182"/>
  </g>
  <!-- left arm (gripping shovel handle, which is rotated above) -->
  <g stroke="url(#bone)" stroke-width="4" fill="none" stroke-linecap="round">
    <line x1="100" y1="138" x2="74" y2="118"/>
    <line x1="74" y1="118" x2="56" y2="90"/>
  </g>
  <!-- right arm (down across the shovel shaft) -->
  <g stroke="url(#bone)" stroke-width="4" fill="none" stroke-linecap="round">
    <line x1="140" y1="138" x2="168" y2="160"/>
    <line x1="168" y1="160" x2="186" y2="186"/>
  </g>
  <!-- hands -->
  <circle cx="56" cy="90" r="5" fill="url(#bone)" stroke="#5a5240" stroke-width="1"/>
  <circle cx="186" cy="186" r="5" fill="url(#bone)" stroke="#5a5240" stroke-width="1"/>
  <!-- wordmark -->
  <text x="120" y="248" text-anchor="middle" font-family="Iosevka,Menlo,Consolas,monospace" font-size="20" font-weight="700" fill="#e8e3d4" letter-spacing="6">DIGGER</text>
</svg>
